<mxfile host="app.diagrams.net" agent="Mozilla/5.0 (Macintosh; Intel Mac OS X 10_15_7) AppleWebKit/537.36 (KHTML, like Gecko) Chrome/105.0.0.0 Safari/537.36" version="26.1.1">
  <diagram name="第 1 页" id="Yz58I20aTdiddunDffZA">
    <mxGraphModel dx="1259" dy="708" grid="1" gridSize="10" guides="1" tooltips="1" connect="1" arrows="1" fold="1" page="1" pageScale="1" pageWidth="1654" pageHeight="2336" math="0" shadow="0">
      <root>
        <mxCell id="0" />
        <mxCell id="1" parent="0" />
        <mxCell id="UjQgA9aJ6Jg_ZI3-yH-7-28" value="" style="rounded=1;whiteSpace=wrap;html=1;fillColor=#d5e8d4;strokeColor=#82b366;" parent="1" vertex="1">
          <mxGeometry x="600" y="540" width="530" height="100" as="geometry" />
        </mxCell>
        <mxCell id="UjQgA9aJ6Jg_ZI3-yH-7-1" value="" style="rounded=0;whiteSpace=wrap;html=1;" parent="1" vertex="1">
          <mxGeometry x="220" y="200" width="160" height="370" as="geometry" />
        </mxCell>
        <mxCell id="UjQgA9aJ6Jg_ZI3-yH-7-3" style="edgeStyle=orthogonalEdgeStyle;rounded=0;orthogonalLoop=1;jettySize=auto;html=1;exitX=1;exitY=0.5;exitDx=0;exitDy=0;" parent="1" source="UjQgA9aJ6Jg_ZI3-yH-7-2" edge="1">
          <mxGeometry relative="1" as="geometry">
            <mxPoint x="590" y="260" as="targetPoint" />
          </mxGeometry>
        </mxCell>
        <mxCell id="UjQgA9aJ6Jg_ZI3-yH-7-2" value="召回" style="rounded=1;whiteSpace=wrap;html=1;" parent="1" vertex="1">
          <mxGeometry x="240" y="230" width="120" height="60" as="geometry" />
        </mxCell>
        <mxCell id="UjQgA9aJ6Jg_ZI3-yH-7-6" value="" style="edgeStyle=orthogonalEdgeStyle;rounded=0;orthogonalLoop=1;jettySize=auto;html=1;" parent="1" source="UjQgA9aJ6Jg_ZI3-yH-7-4" target="UjQgA9aJ6Jg_ZI3-yH-7-5" edge="1">
          <mxGeometry relative="1" as="geometry" />
        </mxCell>
        <mxCell id="UjQgA9aJ6Jg_ZI3-yH-7-4" value="ml-predictor&lt;div&gt;请求转发&lt;/div&gt;" style="rounded=0;whiteSpace=wrap;html=1;" parent="1" vertex="1">
          <mxGeometry x="600" y="230" width="120" height="60" as="geometry" />
        </mxCell>
        <mxCell id="UjQgA9aJ6Jg_ZI3-yH-7-13" style="edgeStyle=orthogonalEdgeStyle;rounded=0;orthogonalLoop=1;jettySize=auto;html=1;exitX=1;exitY=0.5;exitDx=0;exitDy=0;entryX=0;entryY=0.5;entryDx=0;entryDy=0;" parent="1" source="UjQgA9aJ6Jg_ZI3-yH-7-5" target="UjQgA9aJ6Jg_ZI3-yH-7-12" edge="1">
          <mxGeometry relative="1" as="geometry" />
        </mxCell>
        <mxCell id="UjQgA9aJ6Jg_ZI3-yH-7-5" value="kiddy" style="whiteSpace=wrap;html=1;rounded=0;" parent="1" vertex="1">
          <mxGeometry x="800" y="230" width="120" height="60" as="geometry" />
        </mxCell>
        <mxCell id="UjQgA9aJ6Jg_ZI3-yH-7-8" style="edgeStyle=orthogonalEdgeStyle;rounded=0;orthogonalLoop=1;jettySize=auto;html=1;exitX=1;exitY=0.5;exitDx=0;exitDy=0;entryX=0;entryY=0.5;entryDx=0;entryDy=0;" parent="1" source="UjQgA9aJ6Jg_ZI3-yH-7-7" target="UjQgA9aJ6Jg_ZI3-yH-7-9" edge="1">
          <mxGeometry relative="1" as="geometry">
            <mxPoint x="610" y="460" as="targetPoint" />
          </mxGeometry>
        </mxCell>
        <mxCell id="UjQgA9aJ6Jg_ZI3-yH-7-7" value="push" style="rounded=1;whiteSpace=wrap;html=1;" parent="1" vertex="1">
          <mxGeometry x="240" y="430" width="120" height="60" as="geometry" />
        </mxCell>
        <mxCell id="UjQgA9aJ6Jg_ZI3-yH-7-11" value="" style="edgeStyle=orthogonalEdgeStyle;rounded=0;orthogonalLoop=1;jettySize=auto;html=1;" parent="1" source="UjQgA9aJ6Jg_ZI3-yH-7-9" target="UjQgA9aJ6Jg_ZI3-yH-7-10" edge="1">
          <mxGeometry relative="1" as="geometry" />
        </mxCell>
        <mxCell id="UjQgA9aJ6Jg_ZI3-yH-7-25" style="edgeStyle=orthogonalEdgeStyle;rounded=0;orthogonalLoop=1;jettySize=auto;html=1;exitX=0.5;exitY=1;exitDx=0;exitDy=0;entryX=0;entryY=0.5;entryDx=0;entryDy=0;" parent="1" source="UjQgA9aJ6Jg_ZI3-yH-7-9" target="UjQgA9aJ6Jg_ZI3-yH-7-19" edge="1">
          <mxGeometry relative="1" as="geometry" />
        </mxCell>
        <mxCell id="UjQgA9aJ6Jg_ZI3-yH-7-9" value="ml-predictor" style="rounded=0;whiteSpace=wrap;html=1;" parent="1" vertex="1">
          <mxGeometry x="600" y="430" width="120" height="60" as="geometry" />
        </mxCell>
        <mxCell id="UjQgA9aJ6Jg_ZI3-yH-7-10" value="infer" style="rounded=0;whiteSpace=wrap;html=1;" parent="1" vertex="1">
          <mxGeometry x="990" y="430" width="120" height="60" as="geometry" />
        </mxCell>
        <mxCell id="UjQgA9aJ6Jg_ZI3-yH-7-12" value="infer" style="whiteSpace=wrap;html=1;rounded=0;" parent="1" vertex="1">
          <mxGeometry x="990" y="230" width="120" height="60" as="geometry" />
        </mxCell>
        <mxCell id="UjQgA9aJ6Jg_ZI3-yH-7-14" value="parker" style="shape=cylinder3;whiteSpace=wrap;html=1;boundedLbl=1;backgroundOutline=1;size=15;" parent="1" vertex="1">
          <mxGeometry x="730" y="330" width="60" height="80" as="geometry" />
        </mxCell>
        <mxCell id="UjQgA9aJ6Jg_ZI3-yH-7-15" style="edgeStyle=orthogonalEdgeStyle;rounded=0;orthogonalLoop=1;jettySize=auto;html=1;exitX=0.5;exitY=0;exitDx=0;exitDy=0;entryX=0;entryY=0.5;entryDx=0;entryDy=0;entryPerimeter=0;" parent="1" source="UjQgA9aJ6Jg_ZI3-yH-7-9" target="UjQgA9aJ6Jg_ZI3-yH-7-14" edge="1">
          <mxGeometry relative="1" as="geometry" />
        </mxCell>
        <mxCell id="UjQgA9aJ6Jg_ZI3-yH-7-16" style="edgeStyle=orthogonalEdgeStyle;rounded=0;orthogonalLoop=1;jettySize=auto;html=1;exitX=0.5;exitY=1;exitDx=0;exitDy=0;entryX=1;entryY=0.5;entryDx=0;entryDy=0;entryPerimeter=0;" parent="1" source="UjQgA9aJ6Jg_ZI3-yH-7-5" target="UjQgA9aJ6Jg_ZI3-yH-7-14" edge="1">
          <mxGeometry relative="1" as="geometry" />
        </mxCell>
        <mxCell id="UjQgA9aJ6Jg_ZI3-yH-7-26" style="edgeStyle=orthogonalEdgeStyle;rounded=0;orthogonalLoop=1;jettySize=auto;html=1;exitX=1;exitY=0.5;exitDx=0;exitDy=0;entryX=0.5;entryY=1;entryDx=0;entryDy=0;" parent="1" source="UjQgA9aJ6Jg_ZI3-yH-7-19" target="UjQgA9aJ6Jg_ZI3-yH-7-10" edge="1">
          <mxGeometry relative="1" as="geometry" />
        </mxCell>
        <mxCell id="UjQgA9aJ6Jg_ZI3-yH-7-19" value="kiddy" style="rounded=0;whiteSpace=wrap;html=1;" parent="1" vertex="1">
          <mxGeometry x="800" y="550" width="120" height="60" as="geometry" />
        </mxCell>
        <mxCell id="UjQgA9aJ6Jg_ZI3-yH-7-21" style="edgeStyle=orthogonalEdgeStyle;rounded=0;orthogonalLoop=1;jettySize=auto;html=1;exitX=0.5;exitY=0;exitDx=0;exitDy=0;entryX=1;entryY=0.5;entryDx=0;entryDy=0;entryPerimeter=0;" parent="1" source="UjQgA9aJ6Jg_ZI3-yH-7-19" target="UjQgA9aJ6Jg_ZI3-yH-7-14" edge="1">
          <mxGeometry relative="1" as="geometry" />
        </mxCell>
        <mxCell id="UjQgA9aJ6Jg_ZI3-yH-7-24" value="旧链路" style="text;html=1;align=center;verticalAlign=middle;whiteSpace=wrap;rounded=0;" parent="1" vertex="1">
          <mxGeometry x="600" y="380" width="60" height="30" as="geometry" />
        </mxCell>
        <mxCell id="UjQgA9aJ6Jg_ZI3-yH-7-27" value="新链路" style="text;html=1;align=center;verticalAlign=middle;whiteSpace=wrap;rounded=0;" parent="1" vertex="1">
          <mxGeometry x="610" y="590" width="60" height="30" as="geometry" />
        </mxCell>
        <mxCell id="UjQgA9aJ6Jg_ZI3-yH-7-29" value="10.14晚迁移" style="text;html=1;align=center;verticalAlign=middle;whiteSpace=wrap;rounded=0;" parent="1" vertex="1">
          <mxGeometry x="600" y="660" width="90" height="30" as="geometry" />
        </mxCell>
        <mxCell id="j4ldzaKZRSWigt9uMz9Z-4" value="" style="edgeStyle=orthogonalEdgeStyle;rounded=0;orthogonalLoop=1;jettySize=auto;html=1;" parent="1" source="j4ldzaKZRSWigt9uMz9Z-2" edge="1">
          <mxGeometry relative="1" as="geometry">
            <mxPoint x="830" y="1000" as="targetPoint" />
          </mxGeometry>
        </mxCell>
        <mxCell id="j4ldzaKZRSWigt9uMz9Z-2" value="算法同学" style="shape=umlActor;verticalLabelPosition=bottom;verticalAlign=top;html=1;outlineConnect=0;" parent="1" vertex="1">
          <mxGeometry x="940" y="970" width="30" height="60" as="geometry" />
        </mxCell>
        <mxCell id="j4ldzaKZRSWigt9uMz9Z-10" value="starrec" style="rounded=1;whiteSpace=wrap;html=1;" parent="1" vertex="1">
          <mxGeometry x="410" y="970" width="420" height="60" as="geometry" />
        </mxCell>
        <mxCell id="j4ldzaKZRSWigt9uMz9Z-18" style="edgeStyle=orthogonalEdgeStyle;rounded=0;orthogonalLoop=1;jettySize=auto;html=1;exitX=1;exitY=0.5;exitDx=0;exitDy=0;entryX=0;entryY=0.5;entryDx=0;entryDy=0;" parent="1" source="j4ldzaKZRSWigt9uMz9Z-11" target="j4ldzaKZRSWigt9uMz9Z-16" edge="1">
          <mxGeometry relative="1" as="geometry" />
        </mxCell>
        <mxCell id="j4ldzaKZRSWigt9uMz9Z-11" value="" style="rounded=0;whiteSpace=wrap;html=1;" parent="1" vertex="1">
          <mxGeometry x="417" y="1160" width="130" height="70" as="geometry" />
        </mxCell>
        <mxCell id="j4ldzaKZRSWigt9uMz9Z-23" style="edgeStyle=orthogonalEdgeStyle;rounded=0;orthogonalLoop=1;jettySize=auto;html=1;exitX=0.75;exitY=0;exitDx=0;exitDy=0;entryX=0.25;entryY=0;entryDx=0;entryDy=0;dashed=1;" parent="1" source="j4ldzaKZRSWigt9uMz9Z-12" target="j4ldzaKZRSWigt9uMz9Z-16" edge="1">
          <mxGeometry relative="1" as="geometry" />
        </mxCell>
        <mxCell id="j4ldzaKZRSWigt9uMz9Z-12" value="kiddy-sdk" style="rounded=0;whiteSpace=wrap;html=1;" parent="1" vertex="1">
          <mxGeometry x="447" y="1160" width="70" height="32" as="geometry" />
        </mxCell>
        <mxCell id="j4ldzaKZRSWigt9uMz9Z-14" value="监听模型变更" style="text;html=1;align=center;verticalAlign=middle;whiteSpace=wrap;rounded=0;" parent="1" vertex="1">
          <mxGeometry x="400" y="1120" width="80" height="30" as="geometry" />
        </mxCell>
        <mxCell id="j4ldzaKZRSWigt9uMz9Z-17" style="edgeStyle=orthogonalEdgeStyle;rounded=0;orthogonalLoop=1;jettySize=auto;html=1;exitX=0.5;exitY=0;exitDx=0;exitDy=0;entryX=0.75;entryY=1;entryDx=0;entryDy=0;" parent="1" source="j4ldzaKZRSWigt9uMz9Z-16" target="j4ldzaKZRSWigt9uMz9Z-10" edge="1">
          <mxGeometry relative="1" as="geometry" />
        </mxCell>
        <mxCell id="j4ldzaKZRSWigt9uMz9Z-16" value="kiddy" style="rounded=0;whiteSpace=wrap;html=1;" parent="1" vertex="1">
          <mxGeometry x="660" y="1160" width="130" height="70" as="geometry" />
        </mxCell>
        <mxCell id="j4ldzaKZRSWigt9uMz9Z-19" value="发起预估" style="text;html=1;align=center;verticalAlign=middle;whiteSpace=wrap;rounded=0;" parent="1" vertex="1">
          <mxGeometry x="570" y="1162" width="60" height="30" as="geometry" />
        </mxCell>
        <mxCell id="j4ldzaKZRSWigt9uMz9Z-20" style="edgeStyle=orthogonalEdgeStyle;rounded=0;orthogonalLoop=1;jettySize=auto;html=1;exitX=0.5;exitY=0;exitDx=0;exitDy=0;entryX=0.17;entryY=1.026;entryDx=0;entryDy=0;entryPerimeter=0;" parent="1" source="j4ldzaKZRSWigt9uMz9Z-12" target="j4ldzaKZRSWigt9uMz9Z-10" edge="1">
          <mxGeometry relative="1" as="geometry" />
        </mxCell>
        <mxCell id="j4ldzaKZRSWigt9uMz9Z-24" value="监听模型变更" style="text;html=1;align=center;verticalAlign=middle;whiteSpace=wrap;rounded=0;" parent="1" vertex="1">
          <mxGeometry x="560" y="1110" width="80" height="30" as="geometry" />
        </mxCell>
        <mxCell id="j4ldzaKZRSWigt9uMz9Z-25" value="召回引擎" style="text;html=1;align=center;verticalAlign=middle;whiteSpace=wrap;rounded=0;" parent="1" vertex="1">
          <mxGeometry x="452" y="1192" width="60" height="30" as="geometry" />
        </mxCell>
        <mxCell id="qUIkWiV1mme8cJ7062kA-1" value="1-2周" style="rounded=0;whiteSpace=wrap;html=1;fillColor=#d5e8d4;strokeColor=#82b366;" parent="1" vertex="1">
          <mxGeometry x="140" y="1530" width="240" height="60" as="geometry" />
        </mxCell>
        <mxCell id="qUIkWiV1mme8cJ7062kA-2" value="" style="endArrow=none;dashed=1;html=1;dashPattern=1 3;strokeWidth=2;rounded=0;" parent="1" edge="1">
          <mxGeometry width="50" height="50" relative="1" as="geometry">
            <mxPoint x="390" y="1900" as="sourcePoint" />
            <mxPoint x="390" y="1400" as="targetPoint" />
          </mxGeometry>
        </mxCell>
        <mxCell id="qUIkWiV1mme8cJ7062kA-3" value="特征准备" style="rounded=1;whiteSpace=wrap;html=1;fillColor=#dae8fc;strokeColor=#6c8ebf;" parent="1" vertex="1">
          <mxGeometry x="200" y="1400" width="120" height="60" as="geometry" />
        </mxCell>
        <mxCell id="qUIkWiV1mme8cJ7062kA-4" value="" style="endArrow=none;dashed=1;html=1;dashPattern=1 3;strokeWidth=2;rounded=0;" parent="1" edge="1">
          <mxGeometry width="50" height="50" relative="1" as="geometry">
            <mxPoint x="130" y="1900" as="sourcePoint" />
            <mxPoint x="130" y="1400" as="targetPoint" />
          </mxGeometry>
        </mxCell>
        <mxCell id="qUIkWiV1mme8cJ7062kA-5" value="算子匹配" style="rounded=1;whiteSpace=wrap;html=1;fillColor=#dae8fc;strokeColor=#6c8ebf;" parent="1" vertex="1">
          <mxGeometry x="480" y="1400" width="120" height="60" as="geometry" />
        </mxCell>
        <mxCell id="qUIkWiV1mme8cJ7062kA-7" value="" style="endArrow=none;dashed=1;html=1;dashPattern=1 3;strokeWidth=2;rounded=0;" parent="1" edge="1">
          <mxGeometry width="50" height="50" relative="1" as="geometry">
            <mxPoint x="690" y="1900" as="sourcePoint" />
            <mxPoint x="690" y="1400" as="targetPoint" />
          </mxGeometry>
        </mxCell>
        <mxCell id="qUIkWiV1mme8cJ7062kA-9" value="平台化操作，业内持平" style="text;html=1;align=center;verticalAlign=middle;whiteSpace=wrap;rounded=0;" parent="1" vertex="1">
          <mxGeometry x="185" y="1830" width="150" height="30" as="geometry" />
        </mxCell>
        <mxCell id="qUIkWiV1mme8cJ7062kA-11" value="1-2周&lt;div&gt;业内&amp;lt; 1周&lt;/div&gt;" style="rounded=0;whiteSpace=wrap;html=1;fillColor=#fff2cc;strokeColor=#d6b656;" parent="1" vertex="1">
          <mxGeometry x="280" y="1600" width="400" height="60" as="geometry" />
        </mxCell>
        <mxCell id="qUIkWiV1mme8cJ7062kA-12" value="业内&amp;lt; 1周" style="text;html=1;align=center;verticalAlign=middle;whiteSpace=wrap;rounded=0;fillColor=#f8cecc;strokeColor=#b85450;" parent="1" vertex="1">
          <mxGeometry x="447" y="1830" width="150" height="30" as="geometry" />
        </mxCell>
        <mxCell id="qUIkWiV1mme8cJ7062kA-13" value="样本生产" style="rounded=1;whiteSpace=wrap;html=1;fillColor=#dae8fc;strokeColor=#6c8ebf;" parent="1" vertex="1">
          <mxGeometry x="790" y="1400" width="120" height="60" as="geometry" />
        </mxCell>
        <mxCell id="qUIkWiV1mme8cJ7062kA-14" value="" style="endArrow=none;dashed=1;html=1;dashPattern=1 3;strokeWidth=2;rounded=0;" parent="1" edge="1">
          <mxGeometry width="50" height="50" relative="1" as="geometry">
            <mxPoint x="990" y="1910" as="sourcePoint" />
            <mxPoint x="990" y="1400" as="targetPoint" />
          </mxGeometry>
        </mxCell>
        <mxCell id="qUIkWiV1mme8cJ7062kA-15" value="~1周&lt;div&gt;业内 &amp;lt; 3天&lt;/div&gt;" style="rounded=0;whiteSpace=wrap;html=1;fillColor=#fff2cc;strokeColor=#d6b656;" parent="1" vertex="1">
          <mxGeometry x="710" y="1600" width="270" height="60" as="geometry" />
        </mxCell>
        <mxCell id="qUIkWiV1mme8cJ7062kA-17" value="训练" style="rounded=1;whiteSpace=wrap;html=1;fillColor=#dae8fc;strokeColor=#6c8ebf;" parent="1" vertex="1">
          <mxGeometry x="1095" y="1400" width="120" height="60" as="geometry" />
        </mxCell>
        <mxCell id="qUIkWiV1mme8cJ7062kA-18" value="3天" style="rounded=0;whiteSpace=wrap;html=1;fillColor=#d5e8d4;strokeColor=#82b366;" parent="1" vertex="1">
          <mxGeometry x="1040" y="1600" width="230" height="60" as="geometry" />
        </mxCell>
        <mxCell id="qUIkWiV1mme8cJ7062kA-19" value="" style="endArrow=none;dashed=1;html=1;dashPattern=1 3;strokeWidth=2;rounded=0;" parent="1" edge="1">
          <mxGeometry width="50" height="50" relative="1" as="geometry">
            <mxPoint x="1300" y="1910" as="sourcePoint" />
            <mxPoint x="1300" y="1400" as="targetPoint" />
          </mxGeometry>
        </mxCell>
        <mxCell id="7A0U6jxQo_JGmMnE3A_v-1" value="业内&amp;lt; 1周" style="text;html=1;align=center;verticalAlign=middle;whiteSpace=wrap;rounded=0;fillColor=#f8cecc;strokeColor=#b85450;" vertex="1" parent="1">
          <mxGeometry x="775" y="1830" width="150" height="30" as="geometry" />
        </mxCell>
      </root>
    </mxGraphModel>
  </diagram>
</mxfile>
